<svg width="24" height="24" viewBox="0 0 24 24" fill="none" xmlns="http://www.w3.org/2000/svg">
<path d="M9.75 9.25C9.75 8.42157 10.4216 7.75 11.25 7.75H12.4587C13.448 7.75 14.25 8.552 14.25 9.54132C14.25 10.1402 13.9507 10.6996 13.4523 11.0318L12.8906 11.4063C12.3342 11.7772 12 12.4017 12 13.0704V13.25M12 16V15.99M21.25 12C21.25 17.1086 17.1086 21.25 12 21.25C6.89137 21.25 2.75 17.1086 2.75 12C2.75 6.89137 6.89137 2.75 12 2.75C17.1086 2.75 21.25 6.89137 21.25 12ZM12.25 16C12.25 16.1381 12.1381 16.25 12 16.25C11.8619 16.25 11.75 16.1381 11.75 16C11.75 15.8619 11.8619 15.75 12 15.75C12.1381 15.75 12.25 15.8619 12.25 16Z" stroke="url(#paint0_linear_44_973)" stroke-width="1.5" stroke-linecap="round" stroke-linejoin="round"/>
<defs>
<linearGradient id="paint0_linear_44_973" x1="21.25" y1="2.75002" x2="2.27575" y2="3.24994" gradientUnits="userSpaceOnUse">
<stop stop-color="#19B16A"/>
<stop offset="1" stop-color="#2B8C51"/>
</linearGradient>
</defs>
</svg>
