<svg width="25" height="24" viewBox="0 0 25 24" fill="none" xmlns="http://www.w3.org/2000/svg">
<g clip-path="url(#clip0_34_1232)">
<path fill-rule="evenodd" clip-rule="evenodd" d="M24.4342 8.19261C24.3198 7.4916 24.0178 6.83436 23.5598 6.29022C23.1019 5.74608 22.5051 5.33523 21.8324 5.10103L14.6087 2.48201L9.95888 0.79425L10.8813 6.07596C11.563 6.09051 12.2337 6.25024 12.8485 6.54442C13.4632 6.8386 14.0076 7.26043 14.4453 7.78159C16.2124 9.88038 15.8398 12.827 13.7779 14.5604L8.51454 18.9685C8.30862 19.1398 8.0431 19.223 7.77588 19.1999C7.50867 19.1768 7.26145 19.0494 7.08813 18.8454C6.94928 18.6637 6.86129 18.4486 6.83313 18.2219L4.4146 4.36834C4.38531 4.23532 4.38334 4.09777 4.40882 3.96398C4.4343 3.83019 4.48669 3.70292 4.56285 3.58985C4.639 3.47679 4.73734 3.38026 4.85194 3.30609C4.96653 3.23193 5.095 3.18166 5.22961 3.15831C5.36423 3.13497 5.50219 3.13903 5.63518 3.17026C5.76817 3.20149 5.89344 3.25924 6.00344 3.34002C6.11344 3.4208 6.20589 3.52295 6.27521 3.6403C6.34453 3.75766 6.38929 3.88778 6.4068 4.02284L8.5504 16.3058L12.483 13.0156C13.6923 12.005 13.9293 10.3132 12.8954 9.08415C12.4599 8.56888 11.8502 8.23042 11.1814 8.13274C10.5126 8.03506 9.83108 8.18491 9.2656 8.55399C8.87513 6.32085 8.48399 4.08771 8.0922 1.85456L5.93664 1.07224C5.27076 0.820449 4.54899 0.752662 3.84764 0.876041C3.14629 0.99942 2.49142 1.30938 1.95225 1.77315C1.40078 2.22164 0.980902 2.8101 0.736874 3.47651C0.492847 4.14292 0.433705 4.8626 0.56568 5.5597L1.89447 13.105L3.22925 20.6503C3.34331 21.3512 3.64532 22.0083 4.10331 22.5522C4.56131 23.096 5.15827 23.5064 5.83105 23.7399C6.49694 23.9917 7.2187 24.0595 7.92005 23.9361C8.6214 23.8127 9.27628 23.5028 9.81544 23.039L12.4212 20.8548L17.1607 16.9074L20.9678 13.7305L21.6013 13.2023L23.0496 11.9911C23.6026 11.5412 24.0232 10.9506 24.2669 10.282C24.5106 9.61328 24.5684 8.89135 24.4342 8.19261Z" fill="#888888"/>
<path fill-rule="evenodd" clip-rule="evenodd" d="M7.76953 0C7.8791 0.633408 7.9807 1.22115 8.09227 1.85456L7.76953 0Z" fill="#888888"/>
</g>
<defs>
<clipPath id="clip0_34_1232">
<rect width="24" height="24" fill="white" transform="translate(0.5)"/>
</clipPath>
</defs>
</svg>
