<svg width="27" height="24" viewBox="0 0 27 24" fill="none" xmlns="http://www.w3.org/2000/svg">
<rect width="27" height="24" fill="#1E1E1E"/>
<g id="Desktop - 1">
<rect width="1440" height="800" transform="translate(-735 -703)" fill="#F5F5F7"/>
<g id="Frame 45102">
<g id="Frame 45103">
<g id="white-logo 1" clip-path="url(#clip0_0_1)">
<path id="Vector" d="M4.88711 14.8837C4.88711 16.0422 3.90472 16.982 2.69356 16.982C1.48239 16.982 0.500006 16.0422 0.500006 14.8837V2.60019C0.497314 1.44162 1.4797 0.501892 2.69086 0.501892C3.90202 0.501892 4.88441 1.44162 4.88441 2.60019V14.8837H4.88711Z" fill="#888888"/>
<path id="Vector_2" d="M9.44121 9.68635C8.23816 9.68635 7.25845 10.6235 7.25845 11.7743V14.7789C7.25845 17.1553 5.36365 19.1171 2.94671 19.2433C2.86866 19.2484 2.79329 19.2484 2.71524 19.2484C1.51215 19.2484 0.535156 20.183 0.535156 21.3364C0.535156 22.4899 1.50946 23.4218 2.71524 23.4244C2.97093 23.4244 3.23201 23.4141 3.4877 23.391C8.04703 23.0048 11.616 19.2047 11.616 14.7403V11.7718C11.616 10.6209 10.6362 9.68381 9.43316 9.68381L9.44121 9.68635Z" fill="#888888"/>
<path id="Vector_3" d="M22.7514 4.33564H20.9427C20.0788 4.33564 19.3763 3.66366 19.3763 2.83722L19.3817 2.93248H19.3763V2.83722V2.0983C19.3763 0.939727 18.3939 0 17.1828 0C15.9716 0 14.9893 0.939727 14.9893 2.0983V3.29292C14.9893 3.29807 14.9893 3.30579 14.9893 3.31094V3.365C15.0296 6.20222 17.425 8.4936 20.391 8.52967H22.7488C23.9599 8.52967 24.9423 7.58993 24.9423 6.43136C24.9423 5.27279 23.9599 4.33306 22.7488 4.33306L22.7514 4.33564Z" fill="#888888"/>
<path id="Vector_4" d="M21.2896 11.7864C21.2896 10.6278 22.272 9.68808 23.4831 9.68808C24.6944 9.68808 25.6767 10.6278 25.6767 11.7864V13.6839C25.6767 15.2158 25.0227 16.6061 23.9704 17.6153C22.9179 18.6219 21.4619 19.2476 19.8632 19.2476C18.2644 19.2476 16.8083 18.6219 15.7533 17.6153C14.7009 16.6086 14.0469 15.2158 14.0469 13.6839V2.60019C14.0469 1.44162 15.0293 0.501892 16.2404 0.501892C17.4516 0.501892 18.4339 1.44162 18.4339 2.60019V13.6839C18.4339 14.0572 18.5955 14.3996 18.8565 14.6468C19.1176 14.8965 19.4729 15.0509 19.8632 15.0509C20.2534 15.0509 20.6114 14.8965 20.8698 14.6468C21.1308 14.397 21.2923 14.0572 21.2923 13.6839V11.7864H21.2896Z" fill="#888888"/>
<g id="Mask group">
<mask id="mask0_0_1" style="mask-type:luminance" maskUnits="userSpaceOnUse" x="14" y="0" width="12" height="20">
<g id="Group">
<path id="Vector_5" d="M21.2887 11.7863C21.2887 10.6277 22.271 9.68795 23.4822 9.68795C24.6934 9.68795 25.6757 10.6277 25.6757 11.7863V13.6837C25.6757 15.2156 25.0217 16.606 23.9694 17.6152C22.917 18.6218 21.4609 19.2474 19.8622 19.2474C18.2635 19.2474 16.8073 18.6218 15.7523 17.6152C14.6999 16.6085 14.0459 15.2156 14.0459 13.6837V2.60007C14.0459 1.4415 15.0283 0.50177 16.2395 0.50177C17.4506 0.50177 18.433 1.4415 18.433 2.60007V13.6837C18.433 14.0571 18.5945 14.3995 18.8556 14.6466C19.1166 14.8964 19.4719 15.0508 19.8622 15.0508C20.2524 15.0508 20.6104 14.8964 20.8688 14.6466C21.1298 14.3969 21.2913 14.0571 21.2913 13.6837V11.7863H21.2887Z" fill="white"/>
</g>
</mask>
<g mask="url(#mask0_0_1)">
<g id="Group_2">
<path id="Vector_6" d="M22.7514 4.33564H20.9427C20.0788 4.33564 19.3763 3.66366 19.3763 2.83722L19.3817 2.93248H19.3763V2.83722V2.0983C19.3763 0.939727 18.3939 0 17.1828 0C15.9716 0 14.9893 0.939727 14.9893 2.0983V3.29292C14.9893 3.29807 14.9893 3.30579 14.9893 3.31094V3.365C15.0296 6.20222 17.425 8.4936 20.391 8.52967H22.7488C23.9599 8.52967 24.9423 7.58993 24.9423 6.43136C24.9423 5.27279 23.9599 4.33306 22.7488 4.33306L22.7514 4.33564Z" fill="white" fill-opacity="0.1"/>
</g>
</g>
</g>
</g>
</g>
</g>
</g>
<defs>
<clipPath id="clip0_0_1">
<rect width="25.875" height="24" fill="white" transform="translate(0.5)"/>
</clipPath>
</defs>
</svg>
